<?xml version="1.0" standalone="no"?>
<!DOCTYPE svg PUBLIC "-//W3C//DTD SVG 20010904//EN"
 "http://www.w3.org/TR/2001/REC-SVG-20010904/DTD/svg10.dtd">
<svg version="1.0" xmlns="http://www.w3.org/2000/svg"
 width="431.000000pt" height="431.000000pt" viewBox="0 0 431.000000 431.000000"
 preserveAspectRatio="xMidYMid meet">
<metadata>
Created by potrace 1.11, written by Peter Selinger 2001-2013
</metadata>
<g transform="translate(0.000000,431.000000) scale(0.100000,-0.100000)"
fill="#000000" stroke="none">
<path d="M1102 3997 l-52 -53 0 -233 c0 -198 -2 -232 -14 -228 -8 3 -31 9 -50
13 -34 6 -40 3 -86 -42 l-49 -49 -1 -237 0 -237 -47 14 -48 15 -52 -52 -53
-52 0 -134 0 -134 -22 6 c-69 20 -71 19 -125 -34 l-53 -52 0 -498 0 -499 53
-15 c28 -8 73 -20 99 -26 l47 -12 3 -101 3 -102 95 -26 95 -25 3 -101 3 -100
172 -46 c95 -25 184 -49 200 -53 l27 -6 0 -102 0 -101 298 -79 c163 -43 317
-85 342 -92 25 -7 122 -33 215 -58 94 -25 256 -68 360 -96 311 -84 373 -100
377 -100 3 0 28 23 56 50 43 42 52 57 52 86 0 29 3 34 18 30 9 -3 75 -21 147
-41 l129 -35 53 52 c43 42 53 59 53 85 0 38 -3 37 55 22 l45 -11 50 53 c39 41
50 60 50 86 0 18 1 33 3 33 1 0 23 -7 48 -14 l46 -14 52 52 51 52 0 500 0 500
-97 25 -98 25 -3 202 -2 201 -43 12 c-23 6 -68 18 -99 26 l-58 16 0 301 0 301
-77 18 c-42 10 -87 23 -100 28 l-23 9 0 298 0 299 -97 26 -98 26 -52 -52 c-43
-42 -53 -58 -53 -85 0 -32 -2 -34 -27 -27 -16 3 -38 9 -49 11 -17 4 -34 -7
-73 -46 l-51 -51 0 -135 0 -134 -27 6 c-16 4 -37 10 -49 15 -17 6 -31 -2 -73
-45 l-51 -52 0 -136 0 -136 -47 14 -47 14 -53 -52 -53 -52 0 -133 c0 -73 -3
-133 -7 -133 -5 0 -71 17 -148 38 l-140 38 -3 201 -2 200 -58 16 c-31 9 -76
21 -99 27 l-43 11 -2 201 -3 202 -97 25 -98 26 0 201 0 201 -97 24 -98 25 -3
102 -3 101 -42 11 c-23 6 -55 15 -72 20 -79 22 -78 22 -133 -33z"/>
</g>
</svg>
